<svg width="150" height="150" viewBox="0 0 150 150" fill="none" xmlns="http://www.w3.org/2000/svg">
<ellipse cx="75.5734" cy="47.7937" rx="50.54" ry="47.7937" fill="#DBFFFF"/>
<g clip-path="url(#clip0_606_231)">
<path fill-rule="evenodd" clip-rule="evenodd" d="M75.5734 0C47.6501 0 25.0334 21.3877 25.0334 47.7937C25.0334 68.9424 39.5005 86.8054 59.5901 93.138C62.1171 93.5562 63.0648 92.1224 63.0648 90.8678C63.0648 89.7327 63.0016 85.969 63.0016 81.9662C50.3034 84.1767 47.0183 79.0389 46.0075 76.3505C45.439 74.9764 42.9751 70.7347 40.8272 69.5996C39.0583 68.7035 36.5313 66.493 40.764 66.4333C44.744 66.3735 47.5869 69.8983 48.5345 71.3321C53.0831 78.5609 60.3482 76.5297 63.2543 75.2751C63.6965 72.1685 65.0232 70.0775 66.4762 68.8827C55.2311 67.6879 43.4805 63.5657 43.4805 45.2846C43.4805 40.087 45.439 35.7856 48.6609 32.44C48.1555 31.2451 46.3866 26.3463 49.1663 19.7747C49.1663 19.7747 53.399 18.5201 63.0648 24.6735C67.108 23.5982 71.4039 23.0605 75.6998 23.0605C79.9957 23.0605 84.2915 23.5982 88.3347 24.6735C98.0005 18.4603 102.233 19.7747 102.233 19.7747C105.013 26.3463 103.244 31.2451 102.739 32.44C105.961 35.7856 107.919 40.0272 107.919 45.2846C107.919 63.6254 96.1053 67.6879 84.8601 68.8827C86.6922 70.3763 88.2716 73.2439 88.2716 77.7245C88.2716 84.117 88.2084 89.2548 88.2084 90.8678C88.2084 92.1224 89.156 93.616 91.683 93.138C101.716 89.9347 110.434 83.8369 116.61 75.7027C122.787 67.5686 126.11 57.8076 126.113 47.7937C126.113 21.3877 103.497 0 75.5734 0Z" fill="#5222D0"/>
</g>
<path d="M41.0989 141.712C40.1389 141.712 39.2509 141.556 38.4349 141.244C37.6309 140.92 36.9289 140.47 36.3289 139.894C35.7409 139.318 35.2789 138.64 34.9429 137.86C34.6189 137.08 34.4569 136.228 34.4569 135.304C34.4569 134.38 34.6189 133.528 34.9429 132.748C35.2789 131.968 35.7469 131.29 36.3469 130.714C36.9469 130.138 37.6489 129.694 38.4529 129.382C39.2689 129.058 40.1569 128.896 41.1169 128.896C42.0769 128.896 42.9529 129.046 43.7449 129.346C44.5489 129.646 45.2329 130.102 45.7969 130.714L44.9689 131.56C44.4409 131.032 43.8589 130.654 43.2229 130.426C42.5869 130.198 41.9029 130.084 41.1709 130.084C40.3909 130.084 39.6709 130.216 39.0109 130.48C38.3629 130.732 37.7929 131.098 37.3009 131.578C36.8209 132.046 36.4429 132.598 36.1669 133.234C35.9029 133.858 35.7709 134.548 35.7709 135.304C35.7709 136.048 35.9029 136.738 36.1669 137.374C36.4429 138.01 36.8209 138.568 37.3009 139.048C37.7929 139.516 38.3629 139.882 39.0109 140.146C39.6709 140.398 40.3849 140.524 41.1529 140.524C41.8729 140.524 42.5509 140.416 43.1869 140.2C43.8349 139.984 44.4289 139.618 44.9689 139.102L45.7249 140.11C45.1249 140.638 44.4229 141.04 43.6189 141.316C42.8149 141.58 41.9749 141.712 41.0989 141.712ZM44.4469 139.948V135.304H45.7249V140.11L44.4469 139.948ZM51.6548 141.604V129.004H52.9868V141.604H51.6548ZM61.6944 141.604V130.156H57.2664V129.004H67.4544V130.156H63.0264V141.604H61.6944ZM80.9584 129.004H82.2724V141.604H80.9584V129.004ZM73.0744 141.604H71.7424V129.004H73.0744V141.604ZM81.0844 135.79H72.9304V134.62H81.0844V135.79ZM93.6209 141.712C92.0129 141.712 90.7469 141.25 89.8229 140.326C88.8989 139.402 88.4369 138.034 88.4369 136.222V129.004H89.7689V136.168C89.7689 137.656 90.1049 138.754 90.7769 139.462C91.4489 140.17 92.3969 140.524 93.6209 140.524C94.8569 140.524 95.8109 140.17 96.4829 139.462C97.1549 138.754 97.4909 137.656 97.4909 136.168V129.004H98.7869V136.222C98.7869 138.034 98.3249 139.402 97.4009 140.326C96.4889 141.25 95.2289 141.712 93.6209 141.712ZM104.961 141.604V129.004H110.397C111.801 129.004 112.887 129.286 113.655 129.85C114.435 130.414 114.825 131.212 114.825 132.244C114.825 132.928 114.663 133.504 114.339 133.972C114.027 134.44 113.595 134.794 113.043 135.034C112.503 135.274 111.909 135.394 111.261 135.394L111.567 134.962C112.371 134.962 113.061 135.088 113.637 135.34C114.225 135.58 114.681 135.946 115.005 136.438C115.329 136.918 115.491 137.518 115.491 138.238C115.491 139.306 115.095 140.134 114.303 140.722C113.523 141.31 112.341 141.604 110.757 141.604H104.961ZM106.293 140.506H110.739C111.843 140.506 112.689 140.32 113.277 139.948C113.865 139.564 114.159 138.958 114.159 138.13C114.159 137.314 113.865 136.72 113.277 136.348C112.689 135.964 111.843 135.772 110.739 135.772H106.149V134.674H110.307C111.315 134.674 112.095 134.482 112.647 134.098C113.211 133.714 113.493 133.144 113.493 132.388C113.493 131.62 113.211 131.05 112.647 130.678C112.095 130.294 111.315 130.102 110.307 130.102H106.293V140.506Z" fill="#1F2626"/>
<defs>
<clipPath id="clip0_606_231">
<rect width="101.08" height="95.5875" fill="white" transform="translate(25.0334)"/>
</clipPath>
</defs>
</svg>
