<svg width="150" height="147" viewBox="0 0 150 147" fill="none" xmlns="http://www.w3.org/2000/svg">
<ellipse cx="75.5" cy="47" rx="46.5" ry="47" fill="#5222D0"/>
<g clip-path="url(#clip0_606_217)">
<path d="M98.1648 34.6368V60.0951C98.1648 61.5399 96.8899 62.641 95.217 62.641H92.2692V39.5363L74.5826 50.5088L56.896 39.5363V62.641H53.9483C52.2754 62.641 51.0005 61.5399 51.0005 60.0951V34.6368C51.0005 33.9138 51.3159 33.2773 51.845 32.8267C52.1206 32.5886 52.4488 32.4008 52.8101 32.2744C53.1714 32.148 53.5585 32.0856 53.9483 32.091H54.9313L74.5826 44.3963L94.2339 32.091H95.217C96.0542 32.091 96.7911 32.3634 97.3202 32.8267C97.8494 33.2773 98.1648 33.9138 98.1648 34.6368Z" fill="#DBFFFF"/>
</g>
<path d="M48.2346 138.712C47.2746 138.712 46.3866 138.556 45.5706 138.244C44.7666 137.92 44.0646 137.47 43.4646 136.894C42.8766 136.318 42.4146 135.64 42.0786 134.86C41.7546 134.08 41.5926 133.228 41.5926 132.304C41.5926 131.38 41.7546 130.528 42.0786 129.748C42.4146 128.968 42.8826 128.29 43.4826 127.714C44.0826 127.138 44.7846 126.694 45.5886 126.382C46.4046 126.058 47.2926 125.896 48.2526 125.896C49.2126 125.896 50.0886 126.046 50.8806 126.346C51.6846 126.646 52.3686 127.102 52.9326 127.714L52.1046 128.56C51.5766 128.032 50.9946 127.654 50.3586 127.426C49.7226 127.198 49.0386 127.084 48.3066 127.084C47.5266 127.084 46.8066 127.216 46.1466 127.48C45.4986 127.732 44.9286 128.098 44.4366 128.578C43.9566 129.046 43.5786 129.598 43.3026 130.234C43.0386 130.858 42.9066 131.548 42.9066 132.304C42.9066 133.048 43.0386 133.738 43.3026 134.374C43.5786 135.01 43.9566 135.568 44.4366 136.048C44.9286 136.516 45.4986 136.882 46.1466 137.146C46.8066 137.398 47.5206 137.524 48.2886 137.524C49.0086 137.524 49.6866 137.416 50.3226 137.2C50.9706 136.984 51.5646 136.618 52.1046 136.102L52.8606 137.11C52.2606 137.638 51.5586 138.04 50.7546 138.316C49.9506 138.58 49.1106 138.712 48.2346 138.712ZM51.5826 136.948V132.304H52.8606V137.11L51.5826 136.948ZM58.7904 138.604V126.004H59.8884L65.6484 135.832H65.0724L70.7784 126.004H71.8764V138.604H70.5984V128.002H70.9044L65.6484 137.002H65.0184L59.7264 128.002H60.0684V138.604H58.7904ZM76.1258 138.604L81.8858 126.004H83.1998L88.9598 138.604H87.5558L82.2638 126.778H82.8038L77.5118 138.604H76.1258ZM78.3938 135.238L78.7898 134.158H86.1158L86.5118 135.238H78.3938ZM93.2042 138.604V126.004H94.5362V138.604H93.2042ZM100.796 138.604V126.004H102.128V137.452H109.184V138.604H100.796Z" fill="#1F2626"/>
<defs>
<clipPath id="clip0_606_217">
<rect width="47.1643" height="40.7333" fill="white" transform="translate(51 27)"/>
</clipPath>
</defs>
</svg>
