<svg width="150" height="149" viewBox="0 0 150 149" fill="none" xmlns="http://www.w3.org/2000/svg">
<ellipse cx="74.9971" cy="47.793" rx="49" ry="47.7937" fill="#5222D0"/>
<path d="M51.929 71H61.2194V39.0875H51.929V71ZM56.5742 25C53.4774 25 51 27.3 51 30.175C51 33.05 53.4774 35.35 56.5742 35.35C59.671 35.35 62.1484 33.05 62.1484 30.175C62.1484 27.3 59.671 25 56.5742 25ZM77.0129 43.975V39.0875H67.7226V71H77.0129V54.6125C77.0129 45.4125 89.7097 44.8375 89.7097 54.6125V71H99V51.45C99 35.925 81.3484 36.5 77.0129 43.975Z" fill="#DBFFFF"/>
<path d="M24.2635 140.604V128.004H25.5955V139.452H32.6515V140.604H24.2635ZM37.0231 140.604V128.004H38.3551V140.604H37.0231ZM44.6147 140.604V128.004H45.7127L54.4067 138.948H53.8307V128.004H55.1447V140.604H54.0467L45.3707 129.66H45.9467V140.604H44.6147ZM62.5693 137.472L62.5153 135.852L70.1473 128.004H71.6773L66.1153 133.836L65.3593 134.646L62.5693 137.472ZM61.4173 140.604V128.004H62.7493V140.604H61.4173ZM70.4713 140.604L65.0353 134.34L65.9353 133.368L72.0553 140.604H70.4713ZM77.5622 133.638H84.2222V134.772H77.5622V133.638ZM77.7062 139.452H85.2842V140.604H76.3742V128.004H85.0142V129.156H77.7062V139.452ZM90.5752 140.604V128.004H95.7052C97.0492 128.004 98.2252 128.274 99.2332 128.814C100.253 129.342 101.045 130.08 101.609 131.028C102.173 131.976 102.455 133.068 102.455 134.304C102.455 135.54 102.173 136.632 101.609 137.58C101.045 138.528 100.253 139.272 99.2332 139.812C98.2252 140.34 97.0492 140.604 95.7052 140.604H90.5752ZM91.9072 139.452H95.6332C96.7492 139.452 97.7152 139.236 98.5312 138.804C99.3592 138.36 100.001 137.754 100.457 136.986C100.913 136.206 101.141 135.312 101.141 134.304C101.141 133.284 100.913 132.39 100.457 131.622C100.001 130.854 99.3592 130.254 98.5312 129.822C97.7152 129.378 96.7492 129.156 95.6332 129.156H91.9072V139.452ZM107.606 140.604V128.004H108.938V140.604H107.606ZM115.198 140.604V128.004H116.296L124.99 138.948H124.414V128.004H125.728V140.604H124.63L115.954 129.66H116.53V140.604H115.198Z" fill="#1F2626"/>
</svg>
